<?xml version="1.0" standalone="no"?><!DOCTYPE svg PUBLIC "-//W3C//DTD SVG 1.1//EN" "http://www.w3.org/Graphics/SVG/1.1/DTD/svg11.dtd"><svg t="1672454579182" class="icon" viewBox="0 0 1024 1024" version="1.1" xmlns="http://www.w3.org/2000/svg" p-id="2800" xmlns:xlink="http://www.w3.org/1999/xlink" width="200" height="200"><path d="M160 0h512l256 256v704c0 35.3472-28.6528 64-64 64H160c-35.3472 0-64-28.6528-64-64V64c0-35.3472 28.6528-64 64-64z" fill="#CCCCCC" p-id="2801"></path><path d="M672 0l256 256h-192c-35.3472 0-64-28.6528-64-64V0z" fill="#EAEAEA" p-id="2802"></path><path d="M384 499.2c0-25.6 5.12-46.08 10.24-58.88 5.12-12.8 15.36-25.6 28.16-35.84 12.8-12.8 25.6-20.48 43.52-25.6 15.36-5.12 30.72-7.68 48.64-7.68 35.84 0 64 10.24 89.6 30.72C627.2 422.4 640 448 640 481.28c0 15.36-5.12 28.16-10.24 40.96s-17.92 28.16-38.4 46.08-28.16 30.72-35.84 38.4c-7.68 7.68-10.24 17.92-15.36 28.16-5.12 10.24-2.56 17.92-2.56 43.52h-51.2c0-25.6 2.56-38.4 5.12-51.2s7.68-23.04 15.36-33.28 15.36-23.04 33.28-40.96c17.92-17.92 30.72-30.72 35.84-38.4 5.12-7.68 10.24-20.48 10.24-38.4s-7.68-30.72-20.48-43.52-30.72-20.48-53.76-20.48c-51.2 0-76.8 35.84-76.8 87.04h-51.2z m153.6 281.6h-51.2v-51.2h51.2v51.2z" fill="#FFFFFF" p-id="2803"></path></svg>